<svg width="33" height="33" viewBox="0 0 33 33" fill="none" xmlns="http://www.w3.org/2000/svg">
<path d="M4.03966 23.0418C5.40273 25.7979 7.61342 28.0443 10.3472 29.4512C13.0613 30.8449 16.1558 31.3155 19.1615 30.7918C22.1766 30.2617 24.9389 28.7694 27.035 26.5382C29.1506 24.286 30.4976 21.4209 30.8823 18.3548C31.2732 15.2818 30.6846 12.1638 29.2003 9.44479C27.7299 6.74653 25.4319 4.59182 22.6447 3.29801C19.8764 2.01575 16.7652 1.67181 13.7836 2.31839C10.8031 2.96449 8.36065 4.43392 6.34032 6.75729C6.09705 7.01508 5.15616 8.05593 4.37477 9.62686M9.24999 10.0554L3.4355 11.2155L2 5.2218M16.5 11.6667V18.1115L21.3333 21.3339" stroke="white" stroke-width="3" stroke-linecap="round" stroke-linejoin="round"/>
</svg>
