<svg width="24" height="31" viewBox="0 0 24 31" fill="none" xmlns="http://www.w3.org/2000/svg">
<path d="M12 15.1375C11.0111 15.1375 10.0444 14.8805 9.22215 14.3991C8.39991 13.9176 7.75904 13.2332 7.3806 12.4325C7.00217 11.6318 6.90315 10.7508 7.09608 9.90074C7.289 9.05073 7.76521 8.26995 8.46447 7.65713C9.16373 7.0443 10.0546 6.62696 11.0246 6.45789C11.9945 6.28881 12.9998 6.37559 13.9134 6.70724C14.827 7.0389 15.6079 7.60054 16.1573 8.32115C16.7068 9.04175 17 9.88895 17 10.7556C16.9984 11.9173 16.4711 13.0311 15.5338 13.8526C14.5964 14.674 13.3256 15.1361 12 15.1375ZM12 8.12646C11.4067 8.12646 10.8266 8.28066 10.3333 8.56955C9.83994 8.85845 9.45543 9.26907 9.22836 9.74948C9.0013 10.2299 8.94189 10.7585 9.05765 11.2685C9.1734 11.7785 9.45912 12.247 9.87868 12.6147C10.2982 12.9824 10.8328 13.2328 11.4147 13.3343C11.9967 13.4357 12.5999 13.3836 13.1481 13.1846C13.6962 12.9856 14.1648 12.6487 14.4944 12.2163C14.8241 11.7839 15 11.2756 15 10.7556C14.9992 10.0585 14.6829 9.3902 14.1204 8.89729C13.558 8.40438 12.7954 8.12716 12 8.12646Z" fill="white"/>
<path d="M12 31L2.7971 19.985C2.66923 19.8196 2.54268 19.6532 2.41746 19.4857C0.845445 17.3841 -0.00379766 14.8171 1.27668e-05 12.1786C1.27668e-05 8.94861 1.26429 5.85095 3.51473 3.56702C5.76516 1.2831 8.81741 0 12 0C15.1826 0 18.2348 1.2831 20.4853 3.56702C22.7357 5.85095 24 8.94861 24 12.1786C24.0038 14.8159 23.1549 17.3818 21.5836 19.4824L21.5825 19.4857C21.5825 19.4857 21.2553 19.9219 21.2062 19.9806L12 31ZM4.15855 18.1516C4.16074 18.1516 4.41383 18.4926 4.47164 18.5657L12 27.5767L19.5382 18.5535C19.5862 18.4926 19.8414 18.1494 19.8425 18.1483C21.1267 16.4312 21.8207 14.3342 21.8182 12.1786C21.8182 9.53588 20.7838 7.00142 18.9425 5.13276C17.1012 3.26409 14.6039 2.21429 12 2.21429C9.39606 2.21429 6.89877 3.26409 5.0575 5.13276C3.21624 7.00142 2.18183 9.53588 2.18183 12.1786C2.17954 14.3356 2.87322 16.4338 4.15855 18.1516Z" fill="white"/>
</svg>
