<svg width="31" height="24" viewBox="0 0 31 24" fill="none" xmlns="http://www.w3.org/2000/svg">
<path d="M30.5489 4.09956C30.4055 3.97006 30.2348 3.86737 30.0467 3.79745C29.8586 3.72754 29.6568 3.6918 29.4532 3.69231H28.3593V1.38462C28.3588 1.01752 28.1957 0.665576 27.9057 0.406C27.6157 0.146423 27.2225 0.000412288 26.8124 0H4.55211C3.34482 1.53006e-05 2.18699 0.429311 1.3333 1.19345C0.479619 1.95759 1.70935e-05 2.99398 0 4.07463V19.9254C1.70935e-05 21.006 0.479619 22.0424 1.3333 22.8066C2.18699 23.5707 3.34482 24 4.55211 24H29.3923C29.8014 23.9993 30.1937 23.8538 30.4834 23.5952C30.7732 23.3367 30.937 22.9861 30.9391 22.6198L31 5.08165C31.0013 4.89936 30.962 4.71866 30.8846 4.55006C30.8071 4.38146 30.693 4.22832 30.5489 4.09956ZM28.8783 22.1538H4.55211C3.89183 22.1538 3.25858 21.9191 2.79169 21.5011C2.32479 21.0832 2.06249 20.5164 2.06249 19.9254V4.07463C2.06249 3.4836 2.32479 2.91678 2.79169 2.49886C3.25858 2.08094 3.89183 1.84615 4.55211 1.84615H26.2968V3.69231H4.64061V5.53846H28.9359L28.8783 22.1538Z" fill="white"/>
<path d="M26.2971 12.4615H24.2346V14.3077H26.2971V12.4615Z" fill="white"/>
</svg>
