<svg width="23" height="27" viewBox="0 0 23 27" fill="none" xmlns="http://www.w3.org/2000/svg">
<path d="M1.91655 25.65C1.91367 26.0048 2.06074 26.3461 2.32549 26.5992C2.59025 26.8523 2.95107 26.9964 3.32883 27H19.6709C20.0487 26.9964 20.4095 26.8523 20.6743 26.5992C20.939 26.3461 21.0861 26.0048 21.0832 25.65V7.64999H1.91655V25.65ZM3.83321 9.44999H19.1665V25.2H3.83321V9.44999Z" fill="white"/>
<path d="M8.14591 11.25H6.22925V22.5H8.14591V11.25Z" fill="white"/>
<path d="M12.4584 11.25H10.5417V22.5H12.4584V11.25Z" fill="white"/>
<path d="M16.7709 11.25H14.8542V22.5H16.7709V11.25Z" fill="white"/>
<path d="M15.8125 4.05V1.35C15.8125 0.592988 15.2442 0 14.5187 0H8.48125C7.75579 0 7.1875 0.592988 7.1875 1.35V4.05H0V5.85H23V4.05H15.8125ZM9.10417 1.8H13.8958V4.05H9.10417V1.8Z" fill="white"/>
</svg>
