<svg width="27" height="26" viewBox="0 0 27 26" fill="none" xmlns="http://www.w3.org/2000/svg">
<path d="M25.3745 3.30909H20.4776V0H18.697V3.30909H8.01299V0H6.23233V3.30909H1.3355C0.981429 3.30953 0.641979 3.45908 0.391614 3.72495C0.141249 3.99082 0.00041236 4.35128 0 4.72727V24.5818C0.00041236 24.9578 0.141249 25.3183 0.391614 25.5841C0.641979 25.85 0.981429 25.9996 1.3355 26H25.3745C25.7285 25.9996 26.068 25.85 26.3184 25.5841C26.5687 25.3183 26.7096 24.9578 26.71 24.5818V4.72727C26.7096 4.35128 26.5687 3.99082 26.3184 3.72495C26.068 3.45908 25.7285 3.30953 25.3745 3.30909ZM24.9293 24.1091H1.78066V5.2H6.23233V7.56364H8.01299V5.2H18.697V7.56364H20.4776V5.2H24.9293V24.1091Z" fill="white"/>
<path d="M7.12271 10.8727H5.34204V12.7636H7.12271V10.8727Z" fill="white"/>
<path d="M12.0194 10.8727H10.2388V12.7636H12.0194V10.8727Z" fill="white"/>
<path d="M16.4711 10.8727H14.6904V12.7636H16.4711V10.8727Z" fill="white"/>
<path d="M21.3681 10.8727H19.5874V12.7636H21.3681V10.8727Z" fill="white"/>
<path d="M7.12271 15.1273H5.34204V17.0182H7.12271V15.1273Z" fill="white"/>
<path d="M12.0194 15.1273H10.2388V17.0182H12.0194V15.1273Z" fill="white"/>
<path d="M16.4711 15.1273H14.6904V17.0182H16.4711V15.1273Z" fill="white"/>
<path d="M21.3681 15.1273H19.5874V17.0182H21.3681V15.1273Z" fill="white"/>
<path d="M7.12271 19.3818H5.34204V21.2727H7.12271V19.3818Z" fill="white"/>
<path d="M12.0194 19.3818H10.2388V21.2727H12.0194V19.3818Z" fill="white"/>
<path d="M16.4711 19.3818H14.6904V21.2727H16.4711V19.3818Z" fill="white"/>
<path d="M21.3681 19.3818H19.5874V21.2727H21.3681V19.3818Z" fill="white"/>
</svg>
